# xmcd
#
# Track frame offsets:
# 150
# 15780
# 36713
# 55762
# 76914
# 102526
# 120038
# 132451
# 149779
# 168304
# 201112
# 218886
# 229267
# 245478
# 277198
# 293698
#
# Disc length: 4269 seconds
#
#
# Revision: 0
# Processed by: cddbd v1.5.1PL2 Copyright (c) Steve Scherf et al.
# Submitted via: FreeRIP 2.53 
#
DISCID=ed10ab10
DTITLE=Mike Bloomfield - Knockin' Myself Out (Live)
DYEAR=2002
DGENRE=Blues
TTITLE0=Don't You Lie To Me
TTITLE1=Women Lovin' Each Other
TTITLE2=Eyesight To The Blind
TTITLE3=Cherry Red
TTITLE4=Uncle Bob's Barrelhouse Blues
TTITLE5=Linda Lou
TTITLE6=One Of These Days
TTITLE7=Jockey Blues
TTITLE8=Vamp In C
TTITLE9=Wee Wee Hours
TTITLE10=Hully Gully
TTITLE11=RX For The Blues
TTITLE12=Kansas City
TTITLE13=Between A Hard Place And The Ground
TTITLE14=Lo, Though I Am With Thee
TTITLE15=Knockin' Myself Out
EXTD=
EXTT0=
EXTT1=
EXTT2=
EXTT3=
EXTT4=
EXTT5=
EXTT6=
EXTT7=
EXTT8=
EXTT9=
EXTT10=
EXTT11=
EXTT12=
EXTT13=
EXTT14=
EXTT15=
PLAYORDER=
